<svg width="170" height="170" viewBox="0 0 170 170" fill="none" xmlns="http://www.w3.org/2000/svg">
<circle cx="85" cy="85" r="84.5" fill="#DC143C" fill-opacity="0.88" stroke="black"/>
<path d="M55.9688 87.5938H45.2812V106H39.25V60.5H54.3125C59.4375 60.5 63.375 61.6667 66.125 64C68.8958 66.3333 70.2812 69.7292 70.2812 74.1875C70.2812 77.0208 69.5104 79.4896 67.9688 81.5938C66.4479 83.6979 64.3229 85.2708 61.5938 86.3125L72.2812 105.625V106H65.8438L55.9688 87.5938ZM45.2812 82.6875H54.5C57.4792 82.6875 59.8438 81.9167 61.5938 80.375C63.3646 78.8333 64.25 76.7708 64.25 74.1875C64.25 71.375 63.4062 69.2188 61.7188 67.7188C60.0521 66.2188 57.6354 65.4583 54.4688 65.4375H45.2812V82.6875ZM102.188 110.719H73.5625V106H102.188V110.719ZM139.031 65.4375H124.406V106H118.438V65.4375H103.844V60.5H139.031V65.4375Z" fill="#15023A"/>
</svg>
